P2
80 80
255
54 8 12 11 10 1 0 0 2 3 0 0 11 8 7 4 0 3 15 17 13 14 34 34 56 116 168 139 106 109 69 45 33 34 30 27 19 14 13 15 17 18 20 24 45 51 35 21 22 21 23 17 19 54 74 60 47 27 25 23 28 47 46 35 17 7 2 2 6 5 4 44 47 40 32 16 18 19 12 3 
0 4 10 11 8 11 2 0 0 0 0 0 6 6 6 3 1 0 14 23 21 65 187 214 217 215 211 223 229 229 227 228 220 198 100 67 58 27 23 28 29 63 110 175 190 191 153 74 62 31 30 55 88 46 44 27 23 35 30 26 20 19 37 21 19 5 5 5 4 5 4 23 59 54 22 14 24 12 7 10 
1 0 8 13 4 4 2 1 1 1 0 0 4 4 2 2 2 21 55 95 190 221 218 213 212 216 220 225 222 224 222 227 231 226 228 236 234 208 187 214 238 241 244 240 230 231 237 233 222 196 190 180 171 42 32 21 18 25 45 37 21 7 4 15 23 6 5 7 5 7 19 13 16 13 8 10 14 16 24 22 
4 0 0 1 1 1 6 4 5 4 1 1 3 2 1 22 59 178 202 213 215 217 214 211 213 219 223 224 214 215 208 207 215 224 227 231 235 233 229 230 235 237 230 219 221 227 228 231 228 222 229 231 214 114 115 111 34 32 49 34 22 7 5 17 24 7 2 3 2 3 16 25 9 5 24 11 8 18 33 29 
4 0 0 3 10 6 5 5 4 2 0 1 7 3 29 178 201 203 204 209 213 205 206 213 212 216 213 212 210 214 217 218 221 219 222 227 232 226 220 221 225 223 225 232 228 231 227 226 224 227 231 229 220 223 229 230 200 64 26 37 27 7 8 24 27 13 6 6 7 2 3 26 30 18 22 13 9 23 32 25 
7 1 0 0 3 0 0 0 0 0 0 3 3 91 177 197 193 196 198 201 199 198 204 207 210 209 210 205 205 209 214 215 220 219 228 232 234 230 224 228 231 232 229 229 220 219 220 226 227 221 221 223 225 218 207 201 197 72 30 40 27 10 5 6 13 14 8 11 15 9 3 1 13 22 19 13 17 28 32 39 
12 6 1 0 0 0 0 3 4 0 0 5 12 180 194 186 183 189 191 194 201 205 202 208 208 205 204 202 204 203 206 211 213 211 215 216 222 223 220 220 224 221 219 217 211 211 217 224 226 226 219 215 216 211 213 216 216 219 184 69 27 18 7 7 18 18 12 18 19 13 3 5 3 11 20 13 25 34 22 34 
19 14 2 0 0 0 0 1 2 1 0 7 17 178 183 181 172 183 183 190 197 204 204 202 202 197 199 206 201 201 204 210 209 206 208 211 215 213 209 210 211 216 221 218 216 212 216 221 220 215 212 211 216 219 221 220 222 234 237 224 104 27 14 17 28 22 10 19 30 53 30 15 17 44 48 36 42 89 77 43 
61 21 1 0 0 0 0 1 0 3 2 4 9 175 169 166 168 156 172 186 188 185 193 198 199 205 215 228 227 212 214 212 210 203 203 208 208 209 213 212 211 217 219 214 216 207 206 208 210 215 215 216 223 223 230 235 233 232 235 232 219 80 20 28 37 27 11 22 43 88 80 43 41 41 38 47 37 45 44 27 
146 66 6 0 0 0 0 0 3 10 9 6 4 133 147 128 164 152 145 158 150 165 185 188 200 217 234 243 247 239 224 220 214 205 208 210 213 214 215 216 210 211 213 203 207 205 210 207 210 213 212 217 214 215 225 234 232 228 229 230 232 217 83 40 42 31 18 32 39 75 85 85 108 107 75 49 37 35 28 22 
21 6 0 0 0 0 1 2 6 7 12 4 9 26 89 135 114 148 139 126 143 187 210 216 217 212 216 227 241 245 243 237 231 221 216 213 210 213 214 212 212 215 210 207 203 205 205 195 194 193 196 199 206 218 222 229 229 227 216 210 213 219 224 103 49 36 34 42 50 107 110 93 127 144 118 52 65 70 27 7 
6 2 0 0 4 11 9 4 1 4 8 7 11 10 115 206 178 144 143 119 136 202 229 226 225 163 65 186 231 240 242 243 244 238 225 213 209 208 208 207 210 212 208 206 206 206 199 192 199 198 203 208 207 206 208 216 223 224 211 206 214 219 222 212 55 22 28 40 44 55 75 74 99 145 128 111 144 119 47 22 
12 5 8 14 17 9 8 7 6 8 8 9 23 20 186 235 228 169 115 94 134 192 227 224 220 201 190 205 234 235 228 237 241 242 231 218 216 217 213 215 219 212 207 207 207 206 206 207 208 206 208 209 210 210 213 214 206 203 205 208 215 220 223 115 44 25 20 31 40 35 43 62 68 83 101 126 118 66 19 11 
7 6 3 7 24 25 16 17 25 20 9 4 9 93 221 240 233 222 155 142 132 170 211 229 224 230 214 223 221 214 218 235 242 244 232 220 217 219 216 216 221 217 212 208 204 201 208 213 217 215 216 224 228 216 208 204 202 206 209 213 213 214 216 109 59 38 21 32 34 30 12 19 47 51 71 89 55 34 6 16 
4 6 4 12 19 30 19 17 16 21 25 14 1 170 236 239 236 230 191 108 124 186 224 228 228 223 224 216 217 231 243 250 249 239 223 215 215 214 211 214 212 208 205 205 208 212 211 211 215 219 218 206 202 196 194 202 209 209 206 207 209 214 216 179 196 194 52 33 40 31 15 21 25 38 54 27 15 44 25 35 
4 5 4 17 25 21 11 14 14 15 27 29 27 205 238 233 235 233 149 70 59 169 207 229 235 237 235 236 237 241 249 252 247 235 218 215 211 215 214 212 211 211 206 205 206 209 207 213 216 218 211 204 196 199 205 209 208 207 208 206 207 215 220 230 253 220 70 36 41 33 19 26 33 39 19 23 72 97 83 109 
18 2 2 1 16 18 11 17 25 11 23 26 49 203 233 234 236 234 152 66 54 120 214 228 231 234 246 246 251 252 247 247 245 230 217 217 220 219 218 216 218 217 214 206 204 207 210 207 208 201 195 195 197 200 209 209 209 208 209 211 213 213 218 235 238 227 221 219 179 72 37 30 27 32 49 53 110 127 136 160 
35 4 5 8 20 19 13 10 9 9 7 16 49 203 231 229 235 233 162 88 79 151 222 232 229 238 237 239 238 244 238 243 246 231 217 215 217 220 221 216 218 220 216 213 211 213 210 204 194 187 188 190 194 199 199 197 206 209 208 208 214 218 230 236 230 232 240 233 165 78 76 64 31 31 65 55 91 113 127 141 
27 2 2 2 6 7 4 1 7 22 15 14 49 197 222 224 227 228 151 103 58 82 176 231 244 235 243 241 247 244 240 239 244 232 219 218 219 215 215 220 219 219 214 214 216 213 205 200 200 203 198 193 192 192 197 206 210 208 209 213 213 219 235 238 237 239 241 239 223 214 192 199 167 71 68 60 66 91 96 65 
4 2 3 7 1 1 1 1 4 17 4 0 31 192 219 223 225 177 94 50 27 22 126 228 246 251 250 248 247 245 248 247 245 236 227 221 216 213 213 212 214 212 205 206 209 211 206 206 210 212 207 200 194 199 205 209 209 202 204 209 208 225 239 241 231 229 226 228 208 205 209 216 223 192 105 79 86 89 62 56 
2 2 6 2 0 0 0 0 0 0 0 0 0 186 216 215 209 150 99 34 19 21 70 207 250 251 248 252 246 244 247 248 245 242 233 223 217 213 211 210 206 203 203 201 207 206 207 209 211 212 211 210 203 208 208 202 199 200 203 206 207 231 242 247 243 227 212 202 193 193 211 220 229 234 197 86 73 76 61 60 
5 1 2 0 0 0 0 0 0 0 1 0 0 115 203 212 188 134 119 167 141 75 83 219 247 248 242 236 243 243 244 241 237 242 231 224 213 206 208 205 201 196 197 199 197 201 204 206 205 209 212 209 203 205 206 202 199 205 204 197 195 208 231 248 248 234 209 176 184 193 209 213 224 228 177 142 51 42 40 66 
4 0 0 0 0 0 0 0 0 4 0 0 7 29 181 206 175 118 144 140 79 64 102 140 183 237 241 240 232 225 218 237 238 229 221 218 210 205 202 203 198 198 199 204 202 199 203 203 205 210 201 196 199 204 201 198 202 198 193 204 202 201 223 240 237 244 229 202 177 194 203 203 216 217 202 178 92 70 72 92 
13 2 0 0 0 0 0 0 11 79 33 4 1 2 128 196 169 118 137 69 89 106 101 84 68 93 200 234 231 221 227 237 236 223 218 218 211 207 197 196 202 200 204 200 199 197 203 202 209 201 167 179 190 197 196 194 162 152 198 211 205 200 216 231 232 241 236 199 184 193 202 203 208 214 209 210 179 89 66 84 
12 4 0 0 0 0 0 0 3 38 48 14 0 3 53 146 149 155 107 109 99 82 87 64 64 71 58 87 182 203 204 194 219 214 209 211 209 206 203 200 202 196 202 199 199 195 199 203 202 182 165 170 186 195 198 199 159 177 213 218 211 210 215 219 224 237 251 212 197 194 182 188 207 211 217 192 213 114 30 32 
8 7 3 0 0 0 0 1 3 34 64 31 2 5 43 95 120 167 126 103 56 35 56 55 56 65 59 53 53 123 171 186 216 208 205 205 205 206 205 200 199 203 203 197 174 174 187 193 187 163 98 115 149 171 186 195 168 202 222 226 216 208 212 215 222 230 241 233 212 200 199 194 202 202 181 192 206 204 71 32 
12 8 4 3 0 5 1 2 16 29 39 47 16 9 78 193 211 204 177 168 125 31 44 54 46 46 56 47 44 53 100 196 205 202 202 200 206 210 203 193 194 193 193 188 173 181 185 184 192 143 74 70 107 129 168 191 214 214 216 213 214 211 207 210 214 223 226 223 211 201 199 192 196 219 220 184 209 204 172 51 
38 65 82 92 81 34 5 2 17 22 20 54 55 113 207 217 213 205 188 124 127 149 55 47 45 46 38 32 36 51 142 202 192 197 201 199 200 206 187 186 172 163 184 194 187 175 169 182 193 155 112 121 148 167 198 210 214 206 207 208 210 207 206 204 206 210 217 218 209 196 192 199 183 220 207 199 183 196 209 85 
140 167 157 135 123 116 30 2 1 15 25 49 156 218 223 218 211 207 207 149 163 170 148 95 61 65 78 99 119 128 190 203 161 195 203 197 198 199 175 182 185 169 182 193 186 156 167 186 190 165 145 158 191 187 193 203 208 203 199 201 202 198 194 193 199 204 209 210 205 185 180 197 203 212 213 216 199 181 209 153 
142 149 135 123 124 132 47 1 0 4 39 161 225 229 223 212 208 205 203 206 193 182 201 183 76 109 117 122 120 149 195 196 117 193 202 197 202 204 162 174 194 187 137 162 186 189 176 186 180 173 163 176 197 202 181 188 200 199 196 196 196 195 192 196 199 201 204 205 205 159 155 187 199 205 205 208 202 192 206 205 
102 93 101 110 115 80 14 0 2 21 180 223 218 219 217 223 217 205 171 191 204 185 179 199 120 103 95 99 91 113 169 100 43 162 191 199 201 176 119 162 180 162 129 129 179 195 171 174 168 162 165 178 195 201 182 165 179 185 184 184 187 193 190 194 196 197 201 203 208 188 152 188 198 185 200 204 201 204 181 204 
98 78 67 23 17 14 1 0 1 118 219 231 222 217 219 217 202 202 202 134 151 205 163 159 193 161 112 93 83 60 66 56 40 93 163 173 145 158 100 135 174 120 144 99 137 185 166 162 138 144 158 174 183 189 179 151 163 167 155 162 176 183 186 193 195 200 204 202 205 208 191 195 198 200 187 177 201 184 150 115 
109 102 116 40 11 7 1 0 15 187 185 192 203 220 226 210 197 187 186 109 104 176 200 105 119 142 122 106 91 60 74 73 71 35 139 166 108 154 113 114 132 112 129 101 105 131 129 127 128 132 142 156 160 151 131 136 136 137 146 160 166 179 189 197 199 202 203 201 202 198 203 183 184 170 184 188 188 185 149 55 
68 80 71 24 13 16 14 2 112 189 169 182 177 204 204 197 143 184 204 151 88 105 176 140 67 83 99 106 72 55 79 92 83 46 121 123 99 139 119 116 114 106 98 115 102 99 110 120 137 117 108 113 116 122 136 141 155 166 179 179 170 191 199 198 197 197 199 199 204 199 197 188 140 98 196 197 199 194 171 77 
8 5 33 42 24 22 19 25 192 219 225 198 195 202 168 97 100 142 191 196 144 83 64 48 45 83 73 90 60 75 87 101 94 63 95 112 101 103 103 101 93 87 83 96 110 109 114 129 141 106 102 112 121 129 146 163 180 188 196 198 187 193 201 200 197 197 198 199 203 201 193 195 128 162 206 170 183 187 171 70 
86 123 148 142 97 44 6 134 216 231 143 154 202 207 188 132 130 109 93 159 173 119 62 71 37 85 92 101 84 99 92 109 103 77 95 114 114 72 88 93 92 92 88 89 108 115 124 133 124 109 117 128 139 154 172 181 186 190 195 196 192 194 197 199 197 197 196 196 199 198 196 192 135 129 196 82 180 193 152 69 
111 128 149 169 175 119 64 197 225 151 87 193 207 207 204 208 204 190 178 126 137 117 98 107 47 93 112 112 101 107 100 102 93 66 85 112 112 75 97 87 97 95 89 91 101 110 118 111 111 131 147 164 175 185 185 184 187 188 193 194 194 191 196 198 195 198 185 191 197 197 197 193 161 145 160 78 132 143 115 90 
81 77 79 93 105 82 72 159 191 106 164 206 207 199 187 200 205 188 161 115 128 137 118 89 73 101 119 115 108 111 102 95 64 63 79 108 114 86 114 125 91 118 110 106 112 114 114 119 124 152 167 175 179 183 192 190 185 185 191 193 198 192 194 197 197 199 193 185 182 192 197 194 170 154 75 79 137 131 144 89 
74 61 52 46 54 55 46 137 150 163 199 200 204 209 189 198 206 185 128 97 151 166 158 115 81 92 119 116 100 109 100 87 60 63 69 103 117 100 128 124 78 126 121 123 121 120 127 131 133 156 171 176 177 180 188 190 188 180 190 196 195 194 193 190 193 197 200 177 149 181 194 197 133 128 72 66 137 142 141 83 
140 147 50 25 32 40 62 181 148 199 213 212 204 206 200 185 199 179 154 97 122 171 183 147 106 82 109 116 97 105 96 80 59 73 66 98 112 105 132 99 93 126 128 131 131 128 125 132 135 148 167 172 168 170 176 179 183 191 197 197 193 194 193 195 196 200 200 172 145 158 171 164 102 109 95 65 130 135 143 100 
88 106 103 66 29 23 127 179 171 207 214 210 149 153 181 172 159 174 165 115 126 133 152 133 117 94 93 111 86 94 91 78 44 66 54 100 102 109 138 87 110 131 128 133 138 134 126 133 140 138 151 158 155 160 163 170 185 191 196 198 194 194 192 193 197 197 199 167 148 159 161 143 93 102 107 68 119 127 133 89 
81 145 197 187 71 24 182 162 167 212 210 174 117 142 162 178 155 173 173 132 141 138 128 113 116 103 110 98 63 56 91 67 29 35 64 108 95 114 139 96 126 153 140 137 138 135 135 137 141 135 139 140 142 145 148 160 185 189 192 198 193 194 189 195 197 197 195 169 165 173 176 171 99 95 136 67 114 122 123 74 
109 121 145 147 57 30 169 147 130 182 91 114 104 145 153 163 181 177 124 142 141 146 133 80 100 107 114 102 67 41 84 18 14 21 89 106 82 136 127 121 135 158 161 143 140 139 139 139 134 134 133 135 148 150 153 166 183 185 188 192 177 191 184 190 196 194 197 162 155 188 188 190 123 104 146 74 116 126 116 70 
86 90 105 69 23 14 99 139 134 98 68 47 123 125 163 197 202 150 94 143 140 131 122 74 97 103 112 106 107 61 45 25 36 41 110 81 118 152 131 138 145 163 157 152 151 146 141 142 136 136 134 139 146 158 161 165 175 184 179 174 160 176 180 176 185 193 192 113 170 194 198 198 155 147 150 105 106 123 109 71 
88 79 58 24 52 16 65 149 155 105 129 168 151 107 159 199 213 169 94 124 147 144 134 80 106 107 99 96 111 91 52 48 54 96 90 102 140 146 150 145 147 157 150 162 160 148 145 143 139 134 133 138 142 155 155 156 166 174 181 185 186 170 163 161 164 180 187 116 160 194 200 198 176 154 155 122 99 122 100 74 
50 61 76 83 143 102 125 163 135 122 152 212 188 133 168 192 205 178 106 115 134 152 145 71 107 118 111 102 112 113 67 62 74 114 96 136 136 155 159 142 158 170 173 172 162 155 152 144 147 147 142 136 140 148 153 157 161 168 173 177 191 189 181 165 167 164 146 131 157 188 199 201 196 153 148 121 94 121 85 94 
34 14 58 101 152 148 167 148 120 140 155 204 184 177 149 178 199 166 98 105 113 124 117 39 96 120 115 107 116 119 85 75 93 114 129 137 143 158 161 130 162 165 164 161 163 161 157 149 151 153 151 147 147 147 149 153 153 162 174 168 191 187 177 174 173 161 117 122 177 182 195 199 196 181 151 120 94 122 81 72 
95 89 84 79 135 177 172 137 112 145 170 198 152 200 181 141 181 183 79 89 79 70 53 41 59 120 120 101 112 115 98 69 102 116 137 138 144 163 159 126 166 167 166 166 166 165 164 166 158 157 152 153 151 145 148 153 157 161 164 153 180 181 173 168 182 179 124 136 157 189 193 199 201 194 165 119 94 120 85 54 
93 100 84 56 112 163 141 129 142 169 204 145 124 195 207 181 161 182 104 80 64 70 56 46 34 90 103 81 111 116 97 59 110 123 139 142 149 165 131 144 166 170 172 171 179 174 167 171 171 161 156 156 153 143 144 148 158 164 148 146 159 167 171 161 180 182 135 134 152 183 200 203 200 193 184 109 95 109 103 66 
98 93 76 56 78 146 139 121 176 196 167 116 190 187 187 173 160 187 135 102 88 59 59 50 39 45 50 63 84 96 69 75 108 128 146 148 160 156 126 163 172 173 171 179 180 177 172 170 168 163 152 150 149 148 148 147 150 156 144 160 152 148 145 153 169 172 152 137 150 162 196 197 198 195 195 146 84 102 104 74 
82 37 29 45 51 128 139 139 209 196 145 109 189 198 192 194 197 187 156 108 108 51 48 50 36 29 35 53 74 73 60 93 121 137 149 156 163 151 146 177 172 173 176 182 181 178 171 174 164 171 165 154 159 156 151 146 148 154 152 167 156 162 157 148 153 148 156 154 135 148 156 167 179 191 195 181 86 103 57 76 
42 4 5 10 11 136 133 169 213 210 150 118 181 195 184 198 204 202 150 107 112 85 41 41 34 23 36 50 54 48 48 105 124 148 153 162 166 161 163 174 172 175 179 184 192 171 169 152 161 163 169 154 162 162 148 142 140 148 155 162 158 152 150 144 149 152 166 158 152 135 139 156 176 192 196 199 102 78 52 45 
18 7 2 3 9 126 124 137 204 211 130 145 182 193 174 170 194 207 126 114 111 115 47 30 29 23 23 37 33 29 62 117 126 148 158 165 168 166 166 173 177 179 182 181 184 183 171 165 167 170 168 158 157 156 149 148 141 144 150 155 150 149 144 157 134 160 168 155 127 126 136 164 184 193 193 195 182 75 78 48 
51 48 22 4 19 107 126 156 186 201 186 142 203 201 196 164 133 181 123 131 110 117 66 35 26 18 13 14 9 8 84 124 124 152 160 165 171 156 167 176 178 182 186 181 177 174 165 164 168 173 162 162 158 150 146 153 147 150 132 137 139 144 162 162 119 160 167 168 83 117 115 157 183 186 185 186 176 83 86 115 
93 100 58 13 18 94 144 200 206 207 187 115 189 206 184 176 98 123 138 150 117 111 91 40 26 16 8 8 3 31 92 114 134 151 159 167 169 162 170 176 178 184 189 170 168 169 162 152 162 168 158 161 155 145 147 143 143 145 125 128 145 162 170 149 78 153 162 158 98 64 106 78 153 167 172 176 147 94 116 140 
103 98 62 31 22 95 168 192 170 121 113 169 189 209 203 169 92 123 143 154 137 114 101 41 28 16 11 6 2 55 91 107 141 152 158 165 168 165 171 174 178 184 190 174 160 150 166 151 157 163 155 161 158 145 141 133 130 140 134 142 154 171 164 135 41 136 152 146 74 53 38 57 61 109 180 174 125 41 74 118 
108 121 62 42 44 90 185 178 129 181 145 195 189 207 216 135 90 124 145 155 154 114 113 45 29 18 11 7 6 75 92 115 144 160 157 155 174 180 167 171 176 184 195 190 179 134 165 160 175 166 148 160 155 149 143 134 127 127 139 143 151 157 144 124 50 160 150 131 73 42 29 62 14 55 166 115 38 21 34 76 
128 155 72 46 39 93 138 123 145 211 180 198 196 200 211 139 109 127 141 157 166 120 115 47 32 21 12 4 28 84 96 126 151 157 158 162 182 178 166 167 176 180 193 189 168 138 152 160 164 164 152 160 149 147 143 134 125 121 142 150 150 141 145 128 55 180 170 144 55 29 36 25 12 35 63 54 34 36 28 43 
80 127 67 26 24 94 159 156 207 219 194 199 201 182 176 92 112 123 141 153 167 142 120 67 36 22 9 4 63 97 121 137 150 154 167 170 177 169 160 162 177 177 185 176 160 144 136 149 150 155 151 157 138 131 132 121 133 133 135 141 147 147 150 98 57 176 176 134 45 40 65 19 23 33 42 79 57 53 60 41 
66 75 41 17 33 97 182 157 165 205 199 190 199 189 163 89 118 126 141 148 163 165 112 91 42 23 10 18 86 109 142 137 145 161 163 165 173 163 144 158 166 175 172 140 145 140 155 152 152 149 146 157 129 127 127 129 137 137 143 153 142 140 126 28 32 154 173 111 46 44 33 69 100 24 58 95 69 71 113 97 
76 59 34 8 42 98 176 172 156 199 193 192 184 191 163 85 117 131 146 144 155 165 112 106 51 26 15 36 97 133 140 141 147 167 165 161 160 161 138 146 155 167 160 119 141 145 170 160 149 157 152 148 147 147 147 144 148 150 157 153 141 141 94 15 23 117 105 52 43 24 63 107 62 31 68 86 74 52 72 59 
53 32 27 8 60 95 174 195 118 176 190 198 170 148 97 87 107 128 145 145 148 159 127 80 60 29 20 54 105 146 142 142 153 166 166 162 154 155 133 76 107 95 98 124 147 159 157 159 162 169 162 159 158 159 155 164 162 159 157 151 125 112 47 9 14 26 34 40 50 35 55 78 33 23 65 80 87 56 34 24 
97 55 69 72 136 106 147 191 161 175 186 174 181 153 79 91 107 129 140 151 146 146 131 79 64 43 22 54 116 144 145 146 152 160 167 158 153 148 119 61 43 42 88 130 150 157 150 164 174 170 169 172 170 169 166 166 164 163 148 138 127 104 34 9 10 17 31 52 28 79 65 27 26 34 75 86 100 66 21 25 
82 111 112 118 181 160 113 161 159 178 173 143 149 140 100 83 101 118 135 145 140 136 124 78 61 49 30 41 125 138 146 146 149 154 160 156 146 138 92 58 54 80 93 129 148 153 151 156 163 168 171 174 174 177 175 166 135 138 86 83 100 90 35 9 7 20 42 54 37 105 37 18 20 22 66 89 106 69 12 22 
40 128 125 142 184 179 73 96 147 163 178 148 133 129 132 81 96 110 128 140 138 131 123 81 59 47 31 44 127 136 146 142 139 145 149 148 144 127 137 146 163 168 117 104 119 128 147 146 133 130 117 137 130 139 163 128 97 95 61 76 91 88 48 11 25 35 83 65 52 32 36 38 19 14 20 69 106 62 20 8 
83 92 104 155 191 181 76 100 158 150 177 166 145 145 160 96 88 104 116 120 129 127 116 81 65 45 8 49 124 138 141 126 129 140 145 149 130 136 148 176 183 173 174 113 76 77 85 93 90 59 38 78 41 36 62 71 36 43 56 90 94 85 70 29 49 50 86 62 22 19 37 42 39 21 6 42 78 31 16 7 
115 91 97 150 163 141 123 69 128 145 138 150 156 164 166 125 76 97 103 101 113 137 96 80 70 46 16 66 128 138 134 124 129 141 136 131 130 192 160 141 178 187 180 206 108 41 7 26 67 59 45 61 84 60 93 96 43 19 31 70 66 52 65 36 42 82 98 47 23 17 28 36 36 28 9 15 22 9 18 17 
59 103 119 143 139 170 169 67 148 133 94 121 162 184 161 153 80 83 92 91 103 98 90 85 73 42 16 67 123 136 132 120 129 140 121 141 176 176 121 121 166 191 175 178 137 39 23 35 51 45 56 95 124 77 107 109 59 41 47 48 37 32 41 42 58 94 63 44 28 25 20 26 30 36 26 29 19 3 9 22 
95 92 78 113 133 132 88 41 103 122 136 139 159 184 155 161 93 76 85 98 104 93 93 91 72 50 18 59 112 130 125 102 125 130 141 193 140 109 79 67 151 181 186 139 182 149 146 132 123 107 86 124 160 159 144 141 96 84 94 98 108 129 144 125 87 94 58 50 52 51 34 13 16 24 10 10 7 9 0 9 
47 62 64 61 68 42 12 55 117 139 142 138 152 171 152 164 117 73 81 96 113 100 95 93 75 59 14 59 109 130 113 70 113 107 136 122 120 114 119 133 138 167 191 135 165 156 118 113 111 103 85 121 168 158 139 145 99 95 104 104 101 104 104 118 127 134 150 159 150 110 85 35 19 29 13 7 4 8 2 0 
16 31 52 52 54 25 14 52 145 145 151 127 146 159 152 151 155 83 87 97 107 97 95 81 80 34 13 37 84 111 92 92 116 136 163 173 186 184 175 140 111 136 168 145 166 180 123 113 111 104 95 88 149 194 150 113 99 95 94 95 101 101 115 117 120 127 126 130 139 173 170 102 46 35 22 13 8 5 1 0 
117 141 76 69 97 61 18 44 107 129 143 126 137 147 157 143 163 99 92 94 104 91 85 64 45 13 14 19 49 103 144 155 163 189 199 161 133 135 127 127 114 141 145 135 135 136 120 119 115 112 102 129 133 121 140 121 102 106 111 113 115 118 113 114 115 115 117 120 132 138 142 137 157 154 86 58 26 12 2 0 
75 76 65 66 90 32 4 28 65 118 121 116 128 137 163 136 160 112 92 90 102 99 83 31 31 27 36 83 134 161 177 182 171 147 142 134 128 128 132 123 96 110 121 132 80 84 95 91 80 68 59 61 70 94 122 136 72 59 58 69 78 89 95 105 119 127 125 126 122 118 117 120 126 140 167 149 62 11 0 0 
67 51 65 92 108 91 26 23 65 99 100 105 112 124 162 128 139 117 79 89 99 97 94 85 43 115 158 161 175 208 174 146 137 132 128 134 137 133 128 126 108 116 140 118 47 35 35 34 32 27 51 56 37 62 136 141 51 28 37 45 29 31 54 47 65 67 86 115 124 128 130 128 120 121 130 144 167 120 28 2 
103 58 31 72 124 140 109 38 69 113 92 91 91 113 153 130 124 128 47 61 88 93 92 135 164 173 191 185 164 141 137 133 134 132 138 141 137 125 105 72 44 83 126 116 60 30 44 45 29 49 63 36 31 66 135 114 44 34 46 47 21 37 73 52 53 27 33 46 54 80 108 128 133 127 125 126 121 138 151 90 
151 105 52 45 105 161 131 39 87 111 96 83 78 99 129 135 122 131 48 64 87 116 162 174 180 189 170 147 133 130 129 134 137 133 127 109 92 75 56 36 23 83 133 173 109 41 35 35 32 73 52 41 32 77 126 63 35 44 49 26 28 72 54 53 48 35 8 16 27 33 43 63 92 120 130 126 122 124 126 146 
178 138 88 61 71 140 141 49 87 122 122 72 68 95 105 126 125 135 65 113 162 178 192 201 176 144 138 137 135 127 133 136 118 99 84 90 101 86 65 55 35 67 147 167 127 53 33 36 70 95 60 40 18 39 26 26 34 48 37 24 46 73 49 52 61 35 17 37 35 23 29 37 34 54 89 117 130 127 121 120 
153 153 114 36 79 127 153 80 88 134 148 87 52 75 86 96 108 124 142 176 187 205 188 155 143 131 134 134 133 130 113 90 128 104 61 92 100 95 75 68 59 51 71 48 102 78 57 74 126 93 32 25 19 10 19 27 45 43 22 29 81 58 56 55 56 19 45 53 40 39 41 43 47 44 39 54 89 115 128 124 
78 112 88 9 26 108 148 58 83 145 172 131 65 43 57 67 130 178 182 193 205 161 134 122 125 133 142 132 113 100 150 81 147 103 61 65 87 96 85 71 72 74 56 39 63 105 128 140 101 47 22 25 18 16 22 35 46 29 21 70 76 49 64 54 17 26 73 72 50 50 52 45 49 58 65 36 40 60 99 125 
60 19 14 5 4 24 53 12 69 143 167 172 117 76 84 150 181 194 218 184 144 127 123 127 132 132 115 105 42 94 149 87 144 100 62 48 83 90 88 81 77 91 87 49 45 64 74 74 75 35 19 29 21 17 27 40 41 19 41 80 56 28 35 32 1 51 85 81 68 60 58 49 37 58 63 66 56 36 43 74 